<?xml version="1.0" encoding="UTF-8"?>
<svg id="Layer_1" xmlns="http://www.w3.org/2000/svg" version="1.1" viewBox="0 0 48 48">
  <!-- Generator: Adobe Illustrator 29.5.1, SVG Export Plug-In . SVG Version: 2.1.0 Build 141)  -->
  <defs>
    <style>
      .st0 {
        fill: none;
        stroke: #001d3d;
        stroke-linecap: round;
        stroke-linejoin: round;
        stroke-width: 2px;
      }
    </style>
  </defs>
  <g>
    <polyline class="st0" points="38.1 21.7 40.8 17.5 36.3 16.2 37 11.6 32.3 12.1 31.2 7.5 27 9.9 24 6 21.5 9.4 17.9 7.1 16.6 11.2 12.4 10.2 12.7 15 7.9 15.9 10.1 20.3 6 23 9.9 26.2"/>
    <polyline class="st0" points="9.9 26.3 7.2 30.5 11.7 31.8 11 36.4 15.7 35.8 16.8 40.5 21 38.1 24 42 26.5 38.6 30.1 40.9 31.4 36.8 35.6 37.8 35.3 33 40.1 32.1 37.9 27.7 42 25 38.1 21.8"/>
  </g>
  <circle class="st0" cx="24" cy="24" r="12"/>
  <polyline class="st0" points="17.8 22.8 22.8 27.8 30.2 20.2"/>
</svg>