<?xml version="1.0" encoding="UTF-8"?>
<svg id="Layer_1" xmlns="http://www.w3.org/2000/svg" version="1.1" viewBox="0 0 48 48">
  <!-- Generator: Adobe Illustrator 29.5.1, SVG Export Plug-In . SVG Version: 2.1.0 Build 141)  -->
  <defs>
    <style>
      .st0 {
        fill: none;
        stroke: #001d3d;
        stroke-linecap: round;
        stroke-linejoin: round;
        stroke-width: 2px;
      }
    </style>
  </defs>
  <circle class="st0" cx="14" cy="23" r="5"/>
  <path class="st0" d="M13.4,28h1.3c3.5,0,6.4,2.9,6.4,6.4v6.6H7v-6.6c0-3.5,2.9-6.4,6.4-6.4Z"/>
  <path class="st0" d="M42,9.7v6.7c0,1.5-1.2,2.7-2.7,2.7h-8.3l-4,4,.7-4h-1c-1.5,0-2.7-1.2-2.7-2.7v-6.7c0-1.5,1.2-2.7,2.7-2.7h12.7c1.5,0,2.7,1.2,2.7,2.7Z"/>
  <polyline class="st0" points="30.5 12 32.5 14 35.5 11"/>
</svg>