<?xml version="1.0" encoding="UTF-8"?>
<svg id="Layer_1" xmlns="http://www.w3.org/2000/svg" version="1.1" viewBox="0 0 48 48">
  <!-- Generator: Adobe Illustrator 29.5.1, SVG Export Plug-In . SVG Version: 2.1.0 Build 141)  -->
  <defs>
    <style>
      .st0 {
        fill: none;
        stroke: #001d3d;
        stroke-linecap: round;
        stroke-linejoin: round;
        stroke-width: 2px;
      }
    </style>
  </defs>
  <polygon class="st0" points="37 11 37 42 11 42 11 11 18 11 18 13 30 13 30 11 37 11"/>
  <rect class="st0" x="18" y="9" width="12" height="4"/>
  <path class="st0" d="M21,9c0-1.7,1.3-3,3-3s3,1.3,3,3"/>
  <polyline class="st0" points="16.1 18 18.1 20 21.1 17"/>
  <line class="st0" x1="23.6" y1="19" x2="32.6" y2="19"/>
  <polyline class="st0" points="15.9 24 17.9 26 20.9 23"/>
  <line class="st0" x1="23.4" y1="25" x2="32.4" y2="25"/>
  <polyline class="st0" points="15.6 30 17.6 32 20.6 29"/>
  <line class="st0" x1="23.1" y1="31" x2="32.1" y2="31"/>
  <polyline class="st0" points="15.4 36 17.4 38 20.4 35"/>
  <line class="st0" x1="22.9" y1="37" x2="31.9" y2="37"/>
</svg>