<?xml version="1.0" encoding="UTF-8"?>
<svg id="Layer_1" xmlns="http://www.w3.org/2000/svg" version="1.1" viewBox="0 0 48 48">
  <!-- Generator: Adobe Illustrator 29.5.1, SVG Export Plug-In . SVG Version: 2.1.0 Build 141)  -->
  <defs>
    <style>
      .st0 {
        fill: none;
        stroke: #001d3d;
        stroke-linecap: round;
        stroke-linejoin: round;
        stroke-width: 2px;
      }
    </style>
  </defs>
  <rect class="st0" x="12" y="6" width="24" height="36"/>
  <line class="st0" x1="17" y1="11" x2="31" y2="11"/>
  <line class="st0" x1="17" y1="16" x2="31" y2="16"/>
  <line class="st0" x1="17" y1="21" x2="31" y2="21"/>
  <line class="st0" x1="17" y1="26" x2="31" y2="26"/>
  <line class="st0" x1="17" y1="31" x2="24" y2="31"/>
  <path class="st0" d="M26,35.9c1,0,2.1-.4,2.8-1.2.3-.3.4-.8.2-1.1-.2-.2-.7-.2-.9.1s-.2.7,0,1,.4.5.7.7c.6.4,1.3.8,2,.7s1.4-.7,1.4-1.4"/>
</svg>